<?xml version="1.0" encoding="utf-8"?>
<!-- Generator: Adobe Illustrator 27.5.0, SVG Export Plug-In . SVG Version: 6.00 Build 0)  -->
<svg version="1.1" xmlns="http://www.w3.org/2000/svg" xmlns:xlink="http://www.w3.org/1999/xlink" x="0px" y="0px"
	 viewBox="0 0 500 500" style="enable-background:new 0 0 500 500;" xml:space="preserve">
<g id="World">
	<g>
		<path style="fill:#9ABAE3;" d="M380.81,306.92c-51.58,72.25-151.96,89-224.2,37.42c-72.25-51.58-89-151.96-37.42-224.2
			c51.58-72.25,151.96-89,224.2-37.42C415.64,134.3,432.39,234.68,380.81,306.92z"/>
		<path style="fill:#FFFFFF;" d="M319.42,358.52c-51.06,24.4-113.49,21.03-162.81-14.18c-72.25-51.58-89-151.96-37.42-224.2
			c46-64.44,130.82-84.73,199.87-51.77c-66.31-27.89-145.4-7.29-188.96,53.72C79.6,192.82,96,291.11,166.74,341.61
			C212.88,374.56,270.75,379.04,319.42,358.52z"/>
		<path style="fill:none;stroke:#263238;stroke-width:2.5;stroke-linecap:round;stroke-linejoin:round;stroke-miterlimit:10;" d="
			M380.81,306.92c-51.58,72.25-151.96,89-224.2,37.42c-72.25-51.58-89-151.96-37.42-224.2c51.58-72.25,151.96-89,224.2-37.42
			C415.64,134.3,432.39,234.68,380.81,306.92z"/>
		<g style="opacity:0.2;">
			<path style="fill:#263238;" d="M285.177,287.796c-2.004,5.344,1.336,5.567,1.559,7.794c0.223,2.227,0,6.458-6.458,12.916
				c-6.458,6.458-17.147,5.122-19.373,7.794c-2.227,2.672-6.013,14.029-11.357,17.815c-5.344,3.785-6.235,1.559-13.806,3.118
				c-7.571,1.559-13.361,11.357-15.588,16.033c-2.227,4.676,0.445,12.47-4.899,12.693c-5.344,0.223-7.794-11.357-12.693-17.592
				c-4.899-6.235-6.458-11.802-8.016-19.151c-1.559-7.348,0.89-22.714,0-28.726c-0.891-6.012-16.924-16.701-22.714-24.05
				c-5.79-7.349-13.806-22.046-13.361-26.945c0.445-4.899,4.008-10.244,6.68-12.248c2.672-2.004,1.559-3.118,2.004-4.899
				c0.445-1.781,2.672-2.227,3.118-4.454c0.445-2.227-1.336-8.907-3.563-10.021c-2.227-1.114-3.786,2.672-5.122,2.004
				c-1.336-0.668-5.344-5.344-6.903-5.79c-1.559-0.445-1.113,2.895-3.34-1.336c-2.227-4.231-3.34-14.92-5.122-16.701
				c-1.781-1.782-3.117,3.117-7.348,0c-4.231-3.118-6.013-9.13-7.794-10.021c-1.781-0.891-4.231,0.223-6.061-3.34
				c-1.835-3.563,1.608-10.021,0-9.353c-1.612,0.668-5.073,5.79-5.963,0.891c-0.891-4.899,4.454-21.378,3.563-30.285
				c-0.891-8.907,2.227-18.26,8.462-25.831c0,0,0.891-4.899,1.781-8.017c0.891-3.118,20.042-15.588,22.268-19.151
				c0.927-1.487,1.238-3.821,1.572-6.333c26.352-19.396,58.908-30.855,94.141-30.855c4.36,0,8.685,0.174,12.956,0.521
				c0.147,0.205,0.294,0.401,0.445,0.592c1.929,2.449,4.009,4.008,9.651,6.088c5.638,2.076,6.975,4.748,5.79,6.974
				c-1.189,2.227-3.118,2.672-5.344,2.824c-2.227,0.147-4.307-1.042-6.68,0.445c-2.378,1.483-4.752,9.5-7.87,9.945
				c-3.118,0.445-8.609-7.126-9.798-9.353c-1.189-2.227,2.672-6.979,0.851-9.206c-1.821-2.227-5.006-1.782-10.056-2.227
				c-5.046-0.445-16.772,1.488-16.327,3.416c0.445,1.928,17.218-0.298,17.663,3.563c0.445,3.861-12.319,10.39-14.546,9.798
				c-2.227-0.592-5.197-4.454-8.462-4.899c-3.269-0.445-5.941,2.227-7.994,2.525c-2.053,0.294-4.476-2.227-7.594-1.634
				c-3.117,0.592-3.861,3.264-5.495,4.306c-1.63,1.037-5.491,1.037-5.937,3.411c-0.446,2.379,4.899,3.715,6.235,5.198
				c1.336,1.483-1.634,6.534-0.298,7.571c1.336,1.038,9.651-6.235,11.731-8.016c2.075-1.782,3.857-9.5,8.311-9.353
				c4.454,0.147,5.941,7.718,7.424,8.462c1.483,0.744,4.752-1.782,9.651-0.744c4.899,1.042,8.311,11.731,9.201,14.996
				c0.891,3.264,2.97,6.533,1.189,7.87c-1.782,1.336-9.798-0.891-10.836-2.971c-1.042-2.08,5.344-5.197,4.899-5.937
				c-0.445-0.744-4.16-1.781-6.088-0.619c-1.929,1.163-2.819,3.585-4.899,4.182c-2.08,0.592-7.571-5.643-9.055-3.861
				c-1.487,1.782,1.483,7.424,2.966,8.76c1.488,1.336,6.979,2.075,7.424,3.563c0.446,1.483-3.71,4.748-8.76,4.454
				c-5.046-0.299-9.201-4.16-11.134-2.525c-1.929,1.634-0.891,5.937-2.227,7.424c-1.336,1.483-8.609,0.445-12.172,4.302
				c-3.563,3.861-5.197,9.651-8.76,12.916c-3.563,3.269-5.193-0.891-9.945,3.714c-4.752,4.601-5.492,14.844-5.643,18.407
				c-0.147,3.563,0,6.382-1.185,5.937c-1.189-0.445-2.824-3.563-3.269-5.491c-0.446-1.928,1.042-5.197,1.042-6.382
				c0-1.189-6.832-7.277-10.84-7.87c-4.008-0.592-7.571,2.672-10.537,5.046c-2.97,2.378-8.315,1.933-10.243,3.861
				c-1.933,1.929-3.416,19.004-1.933,23.012c1.487,4.008,3.416,4.008,8.168,1.929c4.748-2.08,2.075-6.088,4.899-5.198
				c2.819,0.891,4.302,3.861,4.302,6.235c0,2.378-5.638,8.017-4.899,9.651c0.743,1.634,5.643-0.298,8.016,0.445
				c2.378,0.744,3.563,2.227,2.824,8.315c-0.744,6.084-0.298,10.836,3.265,12.84c3.563,2.004,5.567-2.895,7.126-2.227
				c1.559,0.668,3.786,4.231,6.012,4.008c2.227-0.223,1.113-2.227,5.344-3.563c4.231-1.336,2.672-2.227,3.563-4.899
				c0.891-2.672,3.563-4.899,6.458-3.563c2.895,1.336,0.891,3.34,1.113,5.567c0.223,2.227,5.345,2.45,9.353,3.786
				c4.008,1.336,6.235,0,14.252,2.672c8.017,2.672,8.462,10.689,11.802,12.025c3.34,1.336,14.474-0.891,22.491,4.899
				c8.016,5.79,5.79,16.478,9.798,19.596c4.008,3.118,18.928,7.349,24.718,8.462c5.79,1.113,6.68-2.895,11.357-1.782
				c4.676,1.113,7.349,2.45,8.907,8.907C304.586,270.542,287.181,282.451,285.177,287.796z"/>
			<path style="fill:#263238;" d="M165.522,173.93c0.148,1.26,3.86,1.781,8.313,4.305c4.454,2.524,6.087,9.946,8.462,9.798
				c2.376-0.148,1.633-3.563,2.524-4.453c0.891-0.891,2.375-2.821,0-4.751c-2.375-1.93-4.687-6.087-9.024-6.681
				c-4.336-0.594-5.079-2.375-7.009-2.227C166.858,170.071,165.225,171.406,165.522,173.93z"/>
			<path style="fill:#263238;" d="M190.017,186.401c-0.661,1.819,0,3.117,4.75,4.305c4.751,1.188,9.205-1.188,7.72-2.153
				c-1.484-0.965-3.711-0.52-2.82-2.152c0.891-1.633,0.587-4.008-3.269-3.563C192.541,183.283,190.61,184.767,190.017,186.401z"/>
			<path style="fill:#263238;" d="M206.644,186.907c-1.62,0.234-2.523,3.056-0.891,4.838c1.633,1.782,1.633,1.484,3.563,0
				c1.93-1.485,4.899-2.222,4.157-3.709C212.73,186.549,208.277,186.671,206.644,186.907z"/>
			<path style="fill:#263238;" d="M219.559,192.972c0.726-2.226,4.454-0.04,6.087,2.336c1.633,2.375,0.891,5.79,0,8.313
				c-0.891,2.523-1.485,5.493-3.563,4.305c-2.079-1.188,0.148-4.751-0.148-6.829C221.638,199.019,218.965,194.793,219.559,192.972z"
				/>
			<path style="fill:#263238;" d="M283.543,69.121c-0.777,1.864,2.821,2.524,4.899,3.711c2.079,1.188,3.711,1.93,4.899,0
				c1.188-1.93-0.445-4.157-2.078-4.602C289.63,67.785,284.286,67.34,283.543,69.121z"/>
			<path style="fill:#263238;" d="M311.602,86.49c1.371,1.445,3.711,1.188,5.344,3.266c1.633,2.078,1.039,5.641,3.118,6.68
				c2.078,1.039,3.563,0,3.711-1.485c0.149-1.484-2.969-5.196-2.672-5.938c0.297-0.742,4.305,1.039,5.196,3.266
				c0.891,2.227-0.891,5.344,1.188,5.938c2.078,0.594,1.633-2.078,2.524-2.672c0.89-0.594,2.821-0.297,2.672-2.078
				c-0.148-1.781-2.524-5.641-4.454-6.978c-1.93-1.336-3.414-2.82-6.68-3.563c-3.266-0.742-6.384-0.148-8.017,1.188
				C311.898,85.451,310.757,85.6,311.602,86.49z"/>
			<path style="fill:#263238;" d="M375.831,114.468c-0.178,0.739-0.45,1.283-0.838,1.563c-3.117,2.227-6.832-5.491-11.134-6.974
				c-4.306-1.488-6.235-6.979-7.126-5.79c-0.891,1.184-0.597,2.819-1.932,4.747c-1.336,1.933-3.265,1.488-4.156,5.198
				c-0.891,3.71,4.156,10.542,2.971,12.769c-1.189,2.227-2.672,1.483-5.051,1.336c-2.374-0.151-1.928,1.928-5.042,1.038
				c-3.117-0.891-0.45-4.752-5.349-9.353c-4.899-4.601-6.534-5.491-5.487-7.571c1.051-2.08-0.45-5.046,1.777-5.345
				c2.227-0.298,4.008,2.971,5.491,3.861c1.483,0.891,3.416-1.782,3.563-4.16c0.147-2.374-5.197-5.639-7.126-7.482
				c-1.928-1.848-2.08-8.551-1.336-9.887c0.743-1.336,2.97-0.891,3.563-4.155c0.347-1.919-2.69-5.126-5.256-7.442
				C349.683,86.748,364.069,99.526,375.831,114.468z"/>
			<path style="fill:#263238;" d="M398.001,247.566c0.445-4.752-1.928-5.05,0.445-13.806c2.378-8.76-2.521-18.113-4.302-20.041
				c-1.781-1.933-5.643-1.336-8.76,0.592c-3.117,1.928-0.891,3.416-2.971,4.155c-2.075,0.744-4.155-0.446-6.083-0.294
				c-1.933,0.147-3.715,5.046-7.87,4.899c-4.155-0.152-6.828-6.088-9.945-10.319c-3.117-4.231-9.504-6.903-11.579-12.101
				c-2.08-5.193,1.928-13.21,1.038-19.298c-0.891-6.088-4.899-4.752-5.643-8.163c-0.739-3.416,0.597-1.781,1.634-5.05
				c1.038-3.265-1.189-5.046,0.891-10.689c2.08-5.638,5.79-8.462,4.899-10.982c-0.891-2.525-3.71-6.681-3.861-9.642
				c-0.147-2.957,2.824-2.828,8.462-6.988c5.643-4.155,7.126-3.857,11.432-2.374c4.307,1.483,6.979,2.227,9.5,2.672
				c2.525,0.445,5.941,6.979,6.979,6.68c1.038-0.298,1.189-2.227,1.634-5.046c0.187-1.193,0.989-2.312,1.853-3.198
				c15.263,24.415,24.085,53.266,24.085,84.179c0,34.93-11.263,67.232-30.365,93.469
				C394.616,283.106,397.556,252.313,398.001,247.566z"/>
		</g>
	</g>
</g>
<g id="Location_Pins">
	<g>
		<path style="fill:#EC644E;" d="M145.911,162.726c-3.633,0-7.901,2.785-7.901,8.626c0,8.696,7.901,14.788,7.901,14.788
			s7.903-6.092,7.903-14.788C153.814,165.511,149.547,162.726,145.911,162.726z M145.914,173.001c-1.915,0-3.467-1.552-3.467-3.465
			c0-1.915,1.552-3.465,3.467-3.465c1.913,0,3.465,1.55,3.465,3.465C149.379,171.448,147.826,173.001,145.914,173.001z"/>
		<path style="fill:#EC644E;" d="M375.83,186.015c-3.633,0-7.901,2.785-7.901,8.626c0,8.696,7.901,14.788,7.901,14.788
			s7.903-6.092,7.903-14.788C383.733,188.8,379.465,186.015,375.83,186.015z M375.832,196.29c-1.915,0-3.468-1.552-3.468-3.465
			c0-1.915,1.552-3.465,3.468-3.465c1.913,0,3.465,1.55,3.465,3.465C379.297,194.738,377.745,196.29,375.832,196.29z"/>
		<path style="fill:#EC644E;" d="M346.448,79.729c-3.633,0-7.901,2.785-7.901,8.626c0,8.696,7.901,14.788,7.901,14.788
			s7.903-6.092,7.903-14.788C354.351,82.513,350.083,79.729,346.448,79.729z M346.45,90.003c-1.915,0-3.467-1.552-3.467-3.465
			c0-1.915,1.552-3.465,3.467-3.465c1.913,0,3.465,1.55,3.465,3.465C349.915,88.451,348.363,90.003,346.45,90.003z"/>
		<path style="fill:#EC644E;" d="M181.842,74.085c-3.633,0-7.901,2.785-7.901,8.626c0,8.696,7.901,14.788,7.901,14.788
			s7.903-6.092,7.903-14.788C189.746,76.87,185.478,74.085,181.842,74.085z M181.845,84.36c-1.915,0-3.468-1.552-3.468-3.465
			c0-1.915,1.552-3.465,3.468-3.465c1.913,0,3.465,1.55,3.465,3.465C185.31,82.807,183.758,84.36,181.845,84.36z"/>
		
			<path style="fill:#EC644E;stroke:#263238;stroke-width:2.5;stroke-linecap:round;stroke-linejoin:round;stroke-miterlimit:10;" d="
			M415.857,32.202c-8.157,0-17.74,6.253-17.74,19.369c0,19.525,17.74,33.204,17.74,33.204s17.746-13.679,17.746-33.204
			C433.603,38.455,424.02,32.202,415.857,32.202z M415.863,55.273c-4.3,0-7.786-3.486-7.786-7.78c0-4.3,3.486-7.78,7.786-7.78
			c4.294,0,7.78,3.48,7.78,7.78C423.643,51.787,420.157,55.273,415.863,55.273z"/>
		<path style="fill:#EC644E;" d="M213.588,254.532c-3.633,0-7.901,2.785-7.901,8.626c0,8.696,7.901,14.788,7.901,14.788
			s7.903-6.092,7.903-14.788C221.491,257.316,217.224,254.532,213.588,254.532z M213.591,264.806c-1.915,0-3.468-1.552-3.468-3.465
			c0-1.915,1.552-3.465,3.468-3.465c1.912,0,3.465,1.55,3.465,3.465C217.056,263.254,215.503,264.806,213.591,264.806z"/>
	</g>
</g>
<g id="Airplane">
	<g>
		
			<path style="fill:#EC644E;stroke:#263238;stroke-width:2.5;stroke-linecap:round;stroke-linejoin:round;stroke-miterlimit:10;" d="
			M63.777,100.782l-0.645-14.99h2.202c1.681,0,2.172,0.557,2.909,1.584l6.7,13.406H63.777z"/>
		
			<path style="fill:#EC644E;stroke:#263238;stroke-width:2.5;stroke-linecap:round;stroke-linejoin:round;stroke-miterlimit:10;" d="
			M128.541,121.646l-24.754-39.904h5.861c4.475,0,6.637,1.483,10.18,4.217l38.44,35.687H128.541z"/>
		
			<path style="fill:#FFFFFF;stroke:#263238;stroke-width:2.5;stroke-linecap:round;stroke-linejoin:round;stroke-miterlimit:10;" d="
			M56.613,91.907l9.799,23.353c2.872,6.845,9.571,11.299,16.995,11.299h98.049c4.259,0,8.444-1.119,12.135-3.246l4.752-2.738
			c3.851-2.219,3.941-7.744,0.164-10.087l-4.906-3.043c-3.848-2.387-8.285-3.651-12.813-3.651H84.239l-11.925-8.478
			c-3.119-2.218-6.852-3.409-10.679-3.409H56.613z"/>
		
			<path style="fill:#EC644E;stroke:#263238;stroke-width:2.5;stroke-linecap:round;stroke-linejoin:round;stroke-miterlimit:10;" d="
			M115.904,118.092l-34.734,39.904h5.861c4.475,0,8.824-1.483,12.366-4.217l46.234-35.687H115.904z"/>
		
			<path style="fill:#EC644E;stroke:#263238;stroke-width:2.5;stroke-linecap:round;stroke-linejoin:round;stroke-miterlimit:10;" d="
			M60.812,99.447l-13.048,14.99h2.202c1.681,0,3.315-0.557,4.645-1.584l17.368-13.406H60.812z"/>
		<rect x="87.147" y="110.216" style="fill:#9ABAE3;" width="3.029" height="3.999"/>
		<rect x="94.114" y="110.216" style="fill:#9ABAE3;" width="3.029" height="3.999"/>
		<rect x="101.081" y="110.216" style="fill:#9ABAE3;" width="3.029" height="3.999"/>
		<rect x="108.048" y="110.216" style="fill:#9ABAE3;" width="3.029" height="3.999"/>
		<rect x="115.015" y="110.216" style="fill:#9ABAE3;" width="3.029" height="3.999"/>
		<rect x="121.982" y="110.216" style="fill:#9ABAE3;" width="3.029" height="3.999"/>
		<rect x="128.949" y="110.216" style="fill:#9ABAE3;" width="3.029" height="3.999"/>
		<rect x="135.916" y="110.216" style="fill:#9ABAE3;" width="3.029" height="3.999"/>
		<rect x="142.883" y="110.216" style="fill:#9ABAE3;" width="3.029" height="3.999"/>
		<rect x="149.85" y="110.216" style="fill:#9ABAE3;" width="3.029" height="3.999"/>
		<rect x="156.817" y="110.216" style="fill:#9ABAE3;" width="3.029" height="3.999"/>
		<rect x="163.784" y="110.216" style="fill:#9ABAE3;" width="3.029" height="3.999"/>
		<path style="fill:#9ABAE3;" d="M199.826,114.216h-17.254l-0.729-4.001h13.758C197.206,110.921,199.632,112.411,199.826,114.216z"
			/>
		
			<rect x="171.276" y="110.216" style="fill:#FFFFFF;stroke:#263238;stroke-width:2.5;stroke-linecap:round;stroke-linejoin:round;stroke-miterlimit:10;" width="5.089" height="10.905"/>
		
			<line style="fill:none;stroke:#9ABAE3;stroke-width:2.5;stroke-linecap:round;stroke-linejoin:round;stroke-miterlimit:10;" x1="111.077" y1="133.965" x2="74.276" y2="133.965"/>
		
			<line style="fill:none;stroke:#9ABAE3;stroke-width:2.5;stroke-linecap:round;stroke-linejoin:round;stroke-miterlimit:10;" x1="90.176" y1="138.044" x2="80.16" y2="138.044"/>
		
			<line style="fill:none;stroke:#9ABAE3;stroke-width:2.5;stroke-linecap:round;stroke-linejoin:round;stroke-miterlimit:10;" x1="51.844" y1="99.447" x2="41.827" y2="99.447"/>
		
			<line style="fill:none;stroke:#9ABAE3;stroke-width:2.5;stroke-linecap:round;stroke-linejoin:round;stroke-miterlimit:10;" x1="115.27" y1="91.436" x2="105.254" y2="91.436"/>
		
			<line style="fill:none;stroke:#9ABAE3;stroke-width:2.5;stroke-linecap:round;stroke-linejoin:round;stroke-miterlimit:10;" x1="110.262" y1="130.451" x2="98.186" y2="130.451"/>
		
			<line style="fill:none;stroke:#9ABAE3;stroke-width:2.5;stroke-linecap:round;stroke-linejoin:round;stroke-miterlimit:10;" x1="107.851" y1="94.475" x2="95.775" y2="94.475"/>
		
			<line style="fill:none;stroke:#9ABAE3;stroke-width:2.5;stroke-linecap:round;stroke-linejoin:round;stroke-miterlimit:10;" x1="61.917" y1="103.189" x2="33.474" y2="103.189"/>
	</g>
</g>
<g id="Floor">
	
		<line style="fill:none;stroke:#263238;stroke-width:2.5;stroke-linecap:round;stroke-linejoin:round;stroke-miterlimit:10;" x1="36.74" y1="476.287" x2="463.26" y2="476.287"/>
</g>
<g id="Character">
	<g>
		<g>
			<g>
				<path style="fill:#9ABAE3;" d="M307.136,116.919l-0.487,101.628c-0.029,5.267-4.321,9.513-9.587,9.485l-59.383-0.319
					c-5.267-0.028-9.513-4.321-9.485-9.587l0.488-101.628L307.136,116.919z"/>
				<path style="fill:none;stroke:#263238;stroke-width:2.5;stroke-linecap:round;stroke-linejoin:round;stroke-miterlimit:10;" d="
					M307.136,116.919l-0.487,101.628c-0.029,5.267-4.321,9.513-9.587,9.485l-59.383-0.319c-5.267-0.028-9.513-4.321-9.485-9.587
					l0.488-101.628L307.136,116.919z"/>
			</g>
			<g>
				<path style="fill:#9ABAE3;" d="M316.977,170.667l-0.252,46.964l2.724,0.015c4.408,0.024,7.999-3.529,8.022-7.937l0.209-38.985
					L316.977,170.667z"/>
				<path style="fill:none;stroke:#263238;stroke-width:2.5;stroke-linecap:round;stroke-linejoin:round;stroke-miterlimit:10;" d="
					M316.977,170.667l-0.252,46.964l2.724,0.015c4.408,0.024,7.999-3.529,8.022-7.937l0.209-38.985L316.977,170.667z"/>
			</g>
			<g>
				<path style="fill:#9ABAE3;" d="M233.238,169.974l-0.252,46.964l-2.724-0.015c-4.408-0.023-11.662-3.805-11.638-8.212
					l0.209-38.985L233.238,169.974z"/>
				<path style="fill:none;stroke:#263238;stroke-width:2.5;stroke-linecap:round;stroke-linejoin:round;stroke-miterlimit:10;" d="
					M233.238,169.974l-0.252,46.964l-6.425-0.205c-4.408-0.023-7.96-3.614-7.937-8.022l0.209-38.985L233.238,169.974z"/>
			</g>
			<g>
				<path style="fill:#9ABAE3;" d="M317.213,116.788l-0.488,101.628c-0.028,5.267-4.32,9.513-9.587,9.485l-59.383-0.318
					c-5.267-0.028-9.513-4.321-9.485-9.587l0.488-101.628L317.213,116.788z"/>
				<path style="fill:none;stroke:#263238;stroke-width:2.5;stroke-linecap:round;stroke-linejoin:round;stroke-miterlimit:10;" d="
					M317.213,116.788l-0.488,101.628c-0.028,5.267-4.32,9.513-9.587,9.485l-59.383-0.318c-5.267-0.028-9.513-4.321-9.485-9.587
					l0.488-101.628L317.213,116.788z"/>
			</g>
			<g>
				<path style="fill:#9ABAE3;" d="M228.043,125.229l94.96,0.509c6.754-17.371-0.865-32.411-0.865-32.411l-93.922-0.456
					C221.463,110.243,228.043,125.229,228.043,125.229z"/>
				<path style="fill:#FFFFFF;" d="M231.298,97.209c3.024,13.855-0.051,23.369-1.574,28.04l-1.68-0.021
					c0,0-6.577-14.983,0.171-32.361l93.928,0.46c0,0,0.802,1.583,1.658,4.32L231.298,97.209z"/>
				<path style="fill:none;stroke:#263238;stroke-width:2.5;stroke-linecap:round;stroke-linejoin:round;stroke-miterlimit:10;" d="
					M228.043,125.229l94.96,0.509c6.754-17.371-0.865-32.411-0.865-32.411l-93.922-0.456
					C221.463,110.243,228.043,125.229,228.043,125.229z"/>
				<path style="fill:none;stroke:#263238;stroke-width:2.5;stroke-linecap:round;stroke-linejoin:round;stroke-miterlimit:10;" d="
					M229.723,125.238c6.753-17.371,0.173-32.357,0.173-32.357"/>
			</g>
			<g>
				<g>
					<path style="fill:#FFFFFF;" d="M302.191,89.45l2.007,0.011c1.51,0.008,2.728,1.286,2.719,2.854l-0.176,32.762
						c-0.009,1.568-1.24,2.833-2.75,2.825l-2.007-0.01c-1.51-0.008-2.727-1.286-2.719-2.854l0.176-32.762
						C299.45,90.706,300.681,89.442,302.191,89.45z"/>
					
						<path style="fill:none;stroke:#263238;stroke-width:2.5;stroke-linecap:round;stroke-linejoin:round;stroke-miterlimit:10;" d="
						M302.191,89.45l2.007,0.011c1.51,0.008,2.728,1.286,2.719,2.854l-0.176,32.762c-0.009,1.568-1.24,2.833-2.75,2.825l-2.007-0.01
						c-1.51-0.008-2.727-1.286-2.719-2.854l0.176-32.762C299.45,90.706,300.681,89.442,302.191,89.45z"/>
				</g>
				<g>
					<path style="fill:#FFFFFF;" d="M253.459,89.188l2.007,0.011c1.51,0.008,2.727,1.286,2.719,2.854l-0.176,32.762
						c-0.008,1.568-1.239,2.833-2.749,2.825l-2.007-0.011c-1.51-0.008-2.728-1.286-2.719-2.854l0.176-32.762
						C250.718,90.445,251.949,89.18,253.459,89.188z"/>
					
						<path style="fill:none;stroke:#263238;stroke-width:2.5;stroke-linecap:round;stroke-linejoin:round;stroke-miterlimit:10;" d="
						M253.459,89.188l2.007,0.011c1.51,0.008,2.727,1.286,2.719,2.854l-0.176,32.762c-0.008,1.568-1.239,2.833-2.749,2.825
						l-2.007-0.011c-1.51-0.008-2.728-1.286-2.719-2.854l0.176-32.762C250.718,90.445,251.949,89.18,253.459,89.188z"/>
				</g>
			</g>
			<g>
				
					<path style="fill:#FFFFFF;stroke:#263238;stroke-width:2.5;stroke-linecap:round;stroke-linejoin:round;stroke-miterlimit:10;" d="
					M317.046,158.684l4.316,0.023c2.133,0.012,3.854,1.75,3.842,3.884l-0.043,8.12l-8.179-0.044L317.046,158.684z"/>
				
					<rect x="317.06" y="153.14" transform="matrix(-1 -0.0054 0.0054 -1 638.6265 313.5517)" style="fill:#FFFFFF;stroke:#263238;stroke-width:2.5;stroke-linecap:round;stroke-linejoin:round;stroke-miterlimit:10;" width="5.347" height="5.558"/>
			</g>
		</g>
		<g>
			<g>
				<g>
					<g>
						
							<polygon style="fill:#F0BA92;stroke:#263238;stroke-width:2.5;stroke-linecap:round;stroke-linejoin:round;stroke-miterlimit:10;" points="
							275.418,421.565 269.828,446.7 217.975,446.696 224.271,421.561 						"/>
					</g>
					<g>
						
							<path style="fill:#EC644E;stroke:#263238;stroke-width:2.5;stroke-linecap:round;stroke-linejoin:round;stroke-miterlimit:10;" d="
							M217.98,446.698l-0.001,20.948l75.676,0.005c0,0,1.622-6.752-5.084-10.516c-4.539-2.548-15.498-5.535-17.719-9.06
							c-0.649-1.03,0.402-6.229,0.402-6.229l-52.361-0.003L217.98,446.698z"/>
						
							<path style="fill:#FFFFFF;stroke:#263238;stroke-width:2.5;stroke-linecap:round;stroke-linejoin:round;stroke-miterlimit:10;" d="
							M293.193,476.286h-74.087c-1.421,0-2.574-1.152-2.574-2.574v-3.493c0-1.421,1.152-2.574,2.574-2.574h74.086
							c1.421,0,2.574,1.152,2.574,2.574v3.493C295.766,475.134,294.614,476.286,293.193,476.286z"/>
						
							<path style="fill:none;stroke:#FFFFFF;stroke-width:2.5;stroke-linecap:round;stroke-linejoin:round;stroke-miterlimit:10;" d="
							M254.421,449.386c0,0,9.132-2.158,18.099-1.328"/>
						
							<path style="fill:none;stroke:#FFFFFF;stroke-width:2.5;stroke-linecap:round;stroke-linejoin:round;stroke-miterlimit:10;" d="
							M257.643,452.674c0,0,9.132-2.159,18.099-1.328"/>
						
							<path style="fill:none;stroke:#FFFFFF;stroke-width:2.5;stroke-linecap:round;stroke-linejoin:round;stroke-miterlimit:10;" d="
							M260.864,455.962c0,0,9.132-2.159,18.099-1.328"/>
						
							<path style="fill:#FFFFFF;stroke:#263238;stroke-width:2.5;stroke-linecap:round;stroke-linejoin:round;stroke-miterlimit:10;" d="
							M232.448,458.242c0,2.384-1.933,4.317-4.317,4.317c-2.384,0-4.317-1.933-4.317-4.317c0-2.384,1.933-4.317,4.317-4.317
							C230.515,453.925,232.448,455.858,232.448,458.242z"/>
					</g>
				</g>
				<g>
					<g>
						<path style="fill:#263238;" d="M341.247,204.722h-67.632c-16.729,39.109-11.436,50.773-11.504,54.302
							c-0.234,11.998-15.075,61.656-15.075,61.656c-13.398,20.905-21.255,51.125-28.202,72.246c0,0-9.069,9.673-9.973,20.922
							c-0.711,8.846,8.847,13.93,8.847,13.93c-9.602-14.344,17.707,1.294,31.732,4.524c20.561,4.735,27.006-1.75,27.006-1.75
							s30.865-72.758,39.707-96.676c11.062-29.921,28.395-96.898,26.277-117.975L341.247,204.722z"/>
					</g>
					<g>
						<path style="fill:#FFFFFF;" d="M269.163,257.345c-0.235,12.33-15.485,63.374-15.485,63.374
							c-13.774,21.485-21.848,52.541-28.992,74.25c0,0-9.325,9.946-10.245,21.506c-0.203,2.449,0.364,4.609,1.294,6.47
							c-0.193,0.92,0.385,2.47,1.968,4.834c0,0-9.55-5.09-8.844-13.935c0.909-11.25,9.978-20.918,9.978-20.918
							c6.941-21.121,14.801-51.343,28.201-72.251c0,0,14.844-49.654,15.079-61.652c0.064-3.529-5.229-15.197,11.496-54.306h6.042
							C264.084,242.373,269.238,253.816,269.163,257.345z"/>
					</g>
					<g>
						
							<path style="fill:none;stroke:#263238;stroke-width:2.5;stroke-linecap:round;stroke-linejoin:round;stroke-miterlimit:10;" d="
							M341.247,204.722h-67.632c-16.729,39.109-11.436,50.773-11.504,54.302c-0.234,11.998-15.075,61.656-15.075,61.656
							c-13.398,20.905-21.255,51.125-28.202,72.246c0,0-9.069,9.673-9.973,20.922c-0.711,8.846,8.847,13.93,8.847,13.93
							c-9.602-14.344,17.707,1.294,31.732,4.524c20.561,4.735,27.006-1.75,27.006-1.75s30.865-72.758,39.707-96.676
							c11.062-29.921,28.395-96.898,26.277-117.975L341.247,204.722z"/>
					</g>
					<path style="fill:#263238;" d="M224.27,422.435l-2.34,9.154c0,0-9.468-3.528-6.678-8.488
						C216.725,420.481,224.27,422.435,224.27,422.435z"/>
					
						<path style="fill:none;stroke:#FFFFFF;stroke-width:2.5;stroke-linecap:round;stroke-linejoin:round;stroke-miterlimit:10;" d="
						M282.906,211.086c0,0-14.462,29.007-6.876,43.178c0,0-16.486,67.456-17.865,69.762c0,0-13.927,20.568-31.093,84.956"/>
				</g>
			</g>
			<g>
				<g>
					<g>
						<g>
							
								<polygon style="fill:#F0BA92;stroke:#263238;stroke-width:2.5;stroke-linecap:round;stroke-linejoin:round;stroke-miterlimit:10;" points="
								334.612,441.193 325.417,421.141 362.196,387.886 376.023,418.261 							"/>
						</g>
						<g>
							
								<path style="fill:#EC644E;stroke:#263238;stroke-width:2.5;stroke-linecap:round;stroke-linejoin:round;stroke-miterlimit:10;" d="
								M402.543,416.638l-54.297,52.823l-15.193-31.691l36.584-33.539c0,0,3.88,5.045,6.387,6.688
								C380.726,414.001,393.524,402.599,402.543,416.638z"/>
							
								<path style="fill:none;stroke:#FFFFFF;stroke-width:2.5;stroke-linecap:round;stroke-linejoin:round;stroke-miterlimit:10;" d="
								M364.807,413.882c4.237-5.843,7.922-7.221,7.922-7.221"/>
							
								<path style="fill:none;stroke:#FFFFFF;stroke-width:2.5;stroke-linecap:round;stroke-linejoin:round;stroke-miterlimit:10;" d="
								M367.222,415.335c4.237-5.843,7.922-7.221,7.922-7.221"/>
							
								<path style="fill:none;stroke:#FFFFFF;stroke-width:2.5;stroke-linecap:round;stroke-linejoin:round;stroke-miterlimit:10;" d="
								M369.636,416.788c4.237-5.843,7.922-7.221,7.922-7.221"/>
							
								<path style="fill:#FFFFFF;stroke:#263238;stroke-width:2.5;stroke-linecap:round;stroke-linejoin:round;stroke-miterlimit:10;" d="
								M346.453,466.209c0.089,2.613,2.815,6.749,6.193,7.093c6.355,0.647,20.042-10.77,30.819-23.052
								c16.028-18.265,23.051-27.451,22.037-32.417c-0.207-1.015-4.07-5.21-4.726-5.599
								C392.598,407.385,345.951,451.418,346.453,466.209z"/>
							
								<path style="fill:#FFFFFF;stroke:#263238;stroke-width:2.5;stroke-linecap:round;stroke-linejoin:round;stroke-miterlimit:10;" d="
								M349.674,469.469c0.088,2.612,2.169,5.275,8.643,3.532c6.168-1.661,16.465-7.353,27.242-19.635
								c19.304-21.999,22.462-35.365,18.594-37.658C395.974,410.859,349.172,454.677,349.674,469.469z"/>
							
								<line style="fill:none;stroke:#263238;stroke-width:2.5;stroke-linecap:round;stroke-linejoin:round;stroke-miterlimit:10;" x1="370.95" y1="446.675" x2="385.495" y2="452.895"/>
						</g>
					</g>
				</g>
				<g>
					<g>
						<g>
							<g>
								<path style="fill:#263238;" d="M304.08,204.722h-57.203l-0.593,11.177c-11.262,44.41-2.57,53.949-2.57,53.949
									c10.737,23.805,18.784,38.372,31.204,64.734c0,0,2.38,12.094,7.949,26.524c4.913,12.73,13.788,31.552,20.909,44.257
									c0,0,2.01,10.474,5.388,17.231c6.35,12.7,16.89,8.994,16.89,8.994c-7.643-4.927-1.65-13.238,19.325-19.494
									c22.621-6.748,24.997-20.795,24.997-20.795s-19.655-44.107-33.178-79.981c-8.068-21.402-19.432-43.131-27.542-62.187"/>
							</g>
						</g>
					</g>
					<g>
						<g>
							<g>
								<path style="fill:#FFFFFF;" d="M326.057,431.587c0,0-10.545,3.711-16.897-8.994c-3.379-6.759-5.39-17.229-5.39-17.229
									c-7.112-12.705-15.988-31.527-20.907-44.264c-5.561-14.427-7.946-26.522-7.946-26.522
									c-12.416-26.361-20.469-40.927-31.206-64.732c0,0-8.684-9.539,2.577-53.942l0.588-11.186h8.138l-0.588,11.186
									c-11.261,44.403-2.577,53.942-2.577,53.942c10.737,23.805,18.79,38.371,31.206,64.732c0,0,2.385,12.095,7.946,26.522
									c4.919,12.737,13.796,31.559,20.907,44.264c0,0,2.01,10.47,5.39,17.229c2.267,4.534,5.058,6.973,7.721,8.245
									C325.33,431.084,325.672,431.341,326.057,431.587z"/>
							</g>
						</g>
					</g>
					<g>
						<g>
							<g>
								
									<path style="fill:none;stroke:#263238;stroke-width:2.5;stroke-linecap:round;stroke-linejoin:round;stroke-miterlimit:10;" d="
									M304.08,204.722h-57.203l-0.593,11.177c-11.262,44.41-2.57,53.949-2.57,53.949c10.737,23.805,18.784,38.372,31.204,64.734
									c0,0,2.38,12.094,7.949,26.524c4.913,12.73,13.788,31.552,20.909,44.257c0,0,2.01,10.474,5.388,17.231
									c6.35,12.7,16.89,8.994,16.89,8.994c-7.643-4.927-1.65-13.238,19.325-19.494c22.621-6.748,24.997-20.795,24.997-20.795
									s-19.655-44.107-33.178-79.981c-8.068-21.402-19.432-43.131-27.542-62.187"/>
							</g>
						</g>
					</g>
					<g>
						
							<path style="fill:none;stroke:#FFFFFF;stroke-width:2.5;stroke-linecap:round;stroke-linejoin:round;stroke-miterlimit:10;" d="
							M260.781,236.977c0,0,13.503-2.407,17.767-7.78c4.264-5.373,4.738-14.301,4.738-14.301"/>
						
							<path style="fill:none;stroke:#FFFFFF;stroke-width:2.5;stroke-linecap:round;stroke-linejoin:round;stroke-miterlimit:10;" d="
							M340.401,236.977c0,0-6.58-2.407-8.658-7.78c-2.078-5.373-2.309-14.301-2.309-14.301"/>
						
							<line style="fill:none;stroke:#FFFFFF;stroke-width:2.5;stroke-linecap:round;stroke-linejoin:round;stroke-miterlimit:10;" x1="309.961" y1="249.427" x2="332.21" y2="294.12"/>
						
							<path style="fill:none;stroke:#FFFFFF;stroke-width:2.5;stroke-linecap:round;stroke-linejoin:round;stroke-miterlimit:10;" d="
							M317.621,247.011c-4.085,1.138-26.322,6.516-26.322,6.516"/>
						
							<line style="fill:none;stroke:#FFFFFF;stroke-width:2.5;stroke-linecap:round;stroke-linejoin:round;stroke-miterlimit:10;" x1="314.593" y1="221.12" x2="313.582" y2="247.783"/>
						
							<line style="fill:none;stroke:#FFFFFF;stroke-width:2.5;stroke-linecap:round;stroke-linejoin:round;stroke-miterlimit:10;" x1="305.365" y1="221.12" x2="304.347" y2="249.093"/>
						
							<polyline style="fill:none;stroke:#FFFFFF;stroke-width:2.5;stroke-linecap:round;stroke-linejoin:round;stroke-miterlimit:10;" points="
							294.668,206.774 294.611,217.269 320.286,217.406 						"/>
						
							<path style="fill:none;stroke:#FFFFFF;stroke-width:2.5;stroke-linecap:round;stroke-linejoin:round;stroke-miterlimit:10;" d="
							M302.157,212.062c-0.006,1.094-0.898,1.976-1.992,1.97c-1.094-0.006-1.976-0.897-1.97-1.991
							c0.006-1.094,0.897-1.976,1.991-1.97C301.281,210.076,302.163,210.967,302.157,212.062z"/>
						
							<path style="fill:none;stroke:#FFFFFF;stroke-width:2.5;stroke-linecap:round;stroke-linejoin:round;stroke-miterlimit:10;" d="
							M303.634,251.184c0,0-3.177,4.175-6.823,4.87"/>
					</g>
					<path style="fill:#263238;" d="M326.134,421.281l4.133,9.76c0,0-5.978,4.173-6.846,0.133
						C322.553,427.135,323.579,424.581,326.134,421.281z"/>
					
						<path style="fill:none;stroke:#FFFFFF;stroke-width:2.5;stroke-linecap:round;stroke-linejoin:round;stroke-miterlimit:10;" d="
						M326.053,412.883c-33.802-52.728-37.674-82.127-37.674-82.127l-31.35-64.54c-8.261-8.6,1.279-45.974,1.279-45.974v-9.156"/>
				</g>
			</g>
		</g>
		<g>
			<g>
				<path style="fill:#263238;" d="M196.188,81.038c0.588-2.863,5.006-2.081,4.406,0.841
					C199.957,84.975,195.544,84.172,196.188,81.038z"/>
				<path style="fill:#263238;" d="M186.666,69.853c2.408-0.679,2.383,1.859,4.295,4.701c1.593,2.368,4.69,3.909,3.911,5.666
					c-0.808,1.822-3.843,2.358-7.278-1.76C184.696,74.987,184.156,70.561,186.666,69.853z"/>
				<path style="fill:#263238;" d="M287.15,84.957c-3.797-0.323-4.526-5.75-9.366-4.141c-4.84,1.609-14.055,7.815-23.403,3.33
					c-9.348-4.485-15.079-16.006-29.607-8.574c-15.488,7.923-32.711,1.818-34.54-11.794c-1.839-13.69,23.156-25.056,40.839-16.484
					c14.797,7.174,18.474,21.159,28.614,26.306c7.968,4.044,17.965-3.476,24.802,0.258C291.325,77.593,291.336,85.313,287.15,84.957
					z"/>
				
					<path style="fill:#EC644E;stroke:#263238;stroke-width:2.5;stroke-linecap:round;stroke-linejoin:round;stroke-miterlimit:10;" d="
					M286.016,81.158c-1.817,1.858-1.784,4.837,0.074,6.654c1.858,1.817,4.837,1.784,6.654-0.074
					c1.817-1.858,1.784-4.837-0.074-6.654C290.812,79.267,287.833,79.3,286.016,81.158z"/>
			</g>
			<g>
				<g>
					
						<path style="fill:#F0BA92;stroke:#263238;stroke-width:2.5;stroke-linecap:round;stroke-linejoin:round;stroke-miterlimit:10;" d="
						M429.072,104.855c5.401,5.097-19.685,23.924-19.685,23.924l-11.27-5.847C398.117,122.932,424.033,100.1,429.072,104.855z"/>
					<g>
						
							<path style="fill:#F0BA92;stroke:#263238;stroke-width:2.5;stroke-linecap:round;stroke-linejoin:round;stroke-miterlimit:10;" d="
							M368.681,183.189c-16.19,2.208-36.967-26.948-36.967-26.948l25.22-17.274l6.249,4.491
							c7.225-5.643,15.094-12.878,19.949-16.322c5.117-4.871,13.22-10.071,19.63-10.41c3.643-0.198,19.224,7.695,19.668,13.577
							c0.196,2.615-11.408,17.624-20.582,19.891C401.847,150.196,378.815,181.808,368.681,183.189z"/>
					</g>
					<g>
						<g>
							
								<path style="fill:#EC644E;stroke:#263238;stroke-width:2.5;stroke-linecap:round;stroke-linejoin:round;stroke-miterlimit:10;" d="
								M405.406,97.458l-11.331,36.333c-0.311,0.999,0.224,1.779,1.193,1.734l17.353-0.812c0.969-0.045,2.01-0.9,2.322-1.899
								l11.33-36.332c0.313-1.004-0.219-1.78-1.188-1.735l-17.353,0.812C406.763,95.605,405.719,96.455,405.406,97.458z"/>
							<path style="fill:#FFFFFF;" d="M406.173,99.587l-9.651,30.947c-0.273,0.874,0.15,1.552,0.945,1.515l12.86-0.595
								c0.796-0.037,1.661-0.775,1.934-1.649l9.651-30.947c0.556-1.782-0.062-1.839-0.858-1.802l-2.845,0.133
								c-0.165,0.008-0.36,0.205-0.434,0.442l-0.032,0.103c-0.173,0.555-0.472,0.57-0.838,0.587l-5.237,0.238
								c-0.37,0.018-0.666,0.029-0.493-0.525l0.032-0.102c0.074-0.237,0-0.422-0.168-0.414l-2.844,0.133
								C407.399,97.687,406.682,97.954,406.173,99.587z"/>
						</g>
					</g>
					
						<path style="fill:#F0BA92;stroke:#263238;stroke-width:2.5;stroke-linecap:round;stroke-linejoin:round;stroke-miterlimit:10;" d="
						M428.185,120.316c1.876,6.003-10.586,8.78-13.145,4.446C412.483,120.426,425.887,112.96,428.185,120.316z"/>
					
						<path style="fill:#FCD8C3;stroke:#263238;stroke-width:2.5;stroke-linecap:round;stroke-linejoin:round;stroke-miterlimit:10;" d="
						M427.136,130.138c1.876,6.003-10.587,8.78-13.145,4.445C411.433,130.249,424.838,122.782,427.136,130.138z"/>
					
						<path style="fill:#F0BA92;stroke:#263238;stroke-width:2.5;stroke-linecap:round;stroke-linejoin:round;stroke-miterlimit:10;" d="
						M382.009,128.191c0,0,4.646-8.678,7.943-11.514c3.332-2.866,11.819-7.55,14.252-5.934c2.857,1.898,0.98,5.752-6.627,11.753
						c0,0,6.026,9.366-1.65,17.536"/>
				</g>
				<g>
					
						<path style="fill:#EC644E;stroke:#263238;stroke-width:2.5;stroke-linecap:round;stroke-linejoin:round;stroke-miterlimit:10;" d="
						M363.663,141.085c0,0-21.726-19.283-29.132-25.588c-7.405-6.304-16.577-7.46-25.571-7.108
						c-9.563,0.374-8.339,17.773-5.108,26.471c2.426,6.531,36.624,43.736,44.929,52.498c5.033,5.31,11.698-2.125,11.698-2.125
						s-8.608,2.125-4.183-6.547C363.63,164.323,363.663,141.085,363.663,141.085z"/>
					<path style="fill:#263238;" d="M356.255,179.182l7.304,4.491c0,0-2.11,3.266-4.709,3.99
						C356.252,188.387,355.759,180.608,356.255,179.182z"/>
				</g>
			</g>
			<g>
				
					<path style="fill:#EC644E;stroke:#263238;stroke-width:2.5;stroke-linecap:round;stroke-linejoin:round;stroke-miterlimit:10;" d="
					M330.253,137.488c2.8,8.909,5.3,15.602,7.998,22.687c2.638,6.927-0.772,12.994-0.772,12.994
					c13.643,33.488,4.54,33.485,4.54,33.485s-33.866-0.568-44.935-0.568c-9.115,0-21.526,12.82-36.676,12.487
					c-8.374-0.184-19.675-5.073-19.786-15.979c-0.112-11.043,9.271-23.676,9.271-23.676c0.916-19.586-0.61-50.432,11.572-63.075
					c6.753-7.01,17.43-7.695,28.328-7.292c7.692,0.284,16.375-0.033,23.182-0.168"/>
				<path style="fill:none;stroke:#263238;stroke-width:2.5;stroke-linecap:round;stroke-linejoin:round;stroke-miterlimit:10;" d="
					M292.684,175.628c13.055-3.734,22.167-4.327,29.439-3.637"/>
				<path style="fill:none;stroke:#263238;stroke-width:2.5;stroke-linecap:round;stroke-linejoin:round;stroke-miterlimit:10;" d="
					M306.018,177.138c5.233-0.355,8.691,0.149,11.338,0.985"/>
				<path style="fill:none;stroke:#263238;stroke-width:2.5;stroke-linecap:round;stroke-linejoin:round;stroke-miterlimit:10;" d="
					M294.684,206.086c6.809-3.552,12.644-5.716,21.35-5.038"/>
			</g>
			<g>
				<path style="fill:#263238;" d="M303.415,110.453c0,0,4.197,6.371,0.578,7.096c-5.675,1.136-13.39-7.921-13.39-7.921
					L303.415,110.453z"/>
				<g>
					<g>
						<path style="fill:#F0BA92;" d="M310.816,94.108c1.735,8.38-2.581,16.359-9.641,17.82c-7.059,1.461-14.188-4.148-15.923-12.528
							c-1.735-8.38,2.581-16.359,9.64-17.82C301.952,80.118,309.081,85.727,310.816,94.108z"/>
						
							<path style="fill:none;stroke:#263238;stroke-width:2.5;stroke-linecap:round;stroke-linejoin:round;stroke-miterlimit:10;" d="
							M310.816,94.108c1.735,8.38-2.581,16.359-9.641,17.82c-7.059,1.461-14.188-4.148-15.923-12.528
							c-1.735-8.38,2.581-16.359,9.64-17.82C301.952,80.118,309.081,85.727,310.816,94.108z"/>
					</g>
					<path style="fill:#263238;" d="M305.662,83.729c0,0-3.16,16.154-18.916,19.49c0,0-3.96-10.616,3.148-17.857
						C297.001,78.12,305.662,83.729,305.662,83.729z"/>
				</g>
			</g>
			<g>
				
					<path style="fill:#9ABAE3;stroke:#263238;stroke-width:2.5;stroke-linecap:round;stroke-linejoin:round;stroke-miterlimit:10;" d="
					M344.091,193.698c-1.001,0.939-11.718-33.331-15.326-44.469c-3.405-10.513-14.314-31.732-20.041-40.774
					c-0.497-0.784,4.387-1.205,6.014-0.303c1.628,0.902,14.118,23.29,19.953,38.079c3.533,8.956,10.671,37.669,10.976,38.826
					C345.973,186.214,345.014,192.832,344.091,193.698z"/>
			</g>
			<g>
				<g>
					<path style="fill:#EC644E;" d="M127.695,467.914l-57.528-27.199l68.652-145.204c1.089-2.304,3.84-3.289,6.144-2.199
						l49.185,23.254c2.304,1.089,3.289,3.84,2.199,6.144L127.695,467.914z"/>
					<path style="fill:#FFFFFF;" d="M196.648,321.645l-46.569-22.025c-2.394-1.135-5.256-0.104-6.391,2.29L76.623,443.762
						l-6.453-3.05l68.563-145.026c1.135-2.404,3.997-3.424,6.401-2.29l48.838,23.087
						C195.971,317.43,197.012,319.563,196.648,321.645z"/>
					
						<path style="fill:none;stroke:#263238;stroke-width:2.5;stroke-linecap:round;stroke-linejoin:round;stroke-miterlimit:10;" d="
						M127.695,467.914l-57.528-27.199l68.652-145.204c1.089-2.304,3.84-3.289,6.144-2.199l49.185,23.254
						c2.304,1.089,3.289,3.84,2.199,6.144L127.695,467.914z"/>
					
						<path style="fill:none;stroke:#263238;stroke-width:2.5;stroke-linecap:round;stroke-linejoin:round;stroke-miterlimit:10;" d="
						M161.718,301.232c3.522,1.665,5.028,5.871,3.362,9.393L97.471,453.624"/>
					<g>
						
							<rect x="195.242" y="230.275" transform="matrix(0.4274 -0.904 0.904 0.4274 -96.3498 317.7202)" style="fill:#263238;stroke:#263238;stroke-width:2.5;stroke-linecap:round;stroke-linejoin:round;stroke-miterlimit:10;" width="14.828" height="9.301"/>
						
							<rect x="182.334" y="238.398" transform="matrix(0.9041 0.4274 -0.4274 0.9041 134.594 -52.7523)" style="fill:#FFFFFF;stroke:#263238;stroke-width:2.5;stroke-linecap:round;stroke-linejoin:round;stroke-miterlimit:10;" width="4.923" height="70.029"/>
					</g>
					<g>
						
							<ellipse transform="matrix(0.4274 -0.9041 0.9041 0.4274 -358.4205 359.1225)" style="fill:#263238;" cx="104.288" cy="462.505" rx="13.873" ry="13.486"/>
						<path style="fill:#FFFFFF;" d="M92.093,456.741c-2.164,4.577-1.674,9.709,0.855,13.58c-1.595-3.567-1.666-7.832,0.165-11.706
							c3.275-6.927,11.392-9.961,18.126-6.777c2.282,1.079,4.114,2.734,5.409,4.72c-1.257-2.815-3.462-5.19-6.43-6.593
							C103.485,446.78,95.368,449.814,92.093,456.741z"/>
						<path style="fill:#9ABAE3;" d="M99.365,460.178c-1.322,2.797-0.19,6.107,2.529,7.392c2.719,1.286,5.996,0.06,7.318-2.737
							c1.322-2.797,0.19-6.107-2.529-7.392C103.963,456.155,100.687,457.381,99.365,460.178z"/>
						
							<ellipse transform="matrix(0.4274 -0.9041 0.9041 0.4274 -358.4205 359.1225)" style="fill:none;stroke:#263238;stroke-width:2.5;stroke-linecap:round;stroke-linejoin:round;stroke-miterlimit:10;" cx="104.288" cy="462.505" rx="13.873" ry="13.486"/>
					</g>
					
						<line style="fill:none;stroke:#263238;stroke-width:2.5;stroke-linecap:round;stroke-linejoin:round;stroke-miterlimit:10;" x1="188.19" y1="327.31" x2="130.284" y2="449.785"/>
					
						<line style="fill:none;stroke:#263238;stroke-width:2.5;stroke-linecap:round;stroke-linejoin:round;stroke-miterlimit:10;" x1="159.237" y1="308.422" x2="94.925" y2="444.447"/>
					
						<line style="fill:none;stroke:#263238;stroke-width:2.5;stroke-linecap:round;stroke-linejoin:round;stroke-miterlimit:10;" x1="154.036" y1="305.768" x2="89.724" y2="441.793"/>
					
						<line style="fill:none;stroke:#263238;stroke-width:2.5;stroke-linecap:round;stroke-linejoin:round;stroke-miterlimit:10;" x1="148.835" y1="303.115" x2="84.523" y2="439.139"/>
				</g>
			</g>
			<g>
				<g>
					<g>
						
							<path style="fill:#9ABAE3;stroke:#263238;stroke-width:2.5;stroke-linecap:round;stroke-linejoin:round;stroke-miterlimit:10;" d="
							M239.628,192.302c0.56-0.198,14.921-1.63,25.793-12.086c6.383-6.139,14.123-19.933,13.862-28.833
							c-0.31-10.535-5.379-32.421-9.168-41.5c-0.329-0.788,4.702-1.746,5.962-0.742c1.26,1.004,8.26,26.344,9.269,41.475
							c0.688,10.334-6.824,25.468-16.045,36.313c-9.228,10.853-31.246,12.957-31.686,11.846
							C237.214,197.767,238.52,192.694,239.628,192.302z"/>
					</g>
				</g>
			</g>
			<g>
				
					<path style="fill:#F0BA92;stroke:#263238;stroke-width:2.5;stroke-linecap:round;stroke-linejoin:round;stroke-miterlimit:10;" d="
					M242.004,129.046c-5.293,7.524-40.146,69.303-42.014,70.927c0,0-10.884,10.742-12.454,16.748
					c-1.932,7.393-0.735,30.707,2.68,32.303c3.415,1.596,5.98-5.007,5.869-9.219c-0.112-4.213,2.493-11.805,2.493-11.805
					s6.002-7.938,8.635-8.008c2.633-0.07,1.972,8.239,0.872,12.532c-1.1,4.293-0.371,8.376,2.119,10.839
					c2.489,2.464,4.944-6.06,6.867-8.91c4.638-6.875,8.568-14.948,8.568-14.948s36.941-60.691,40.133-66.502
					C268.017,148.916,255.221,110.26,242.004,129.046z"/>
				<g>
					<path style="fill:#EC644E;" d="M269.542,110.706c-13.833,0.867-19.1,3.424-27.771,15.033
						c-11.037,14.777-23.148,35.622-23.148,35.622s7.595,11.885,19.376,19.082c19.482,11.9,16.679,19.311,16.679,19.311
						s5.89,4.937,11.785-37.289c0.409-2.93,3.692-12.241,3.692-12.241"/>
					<path style="fill:#FFFFFF;" d="M267.511,110.866c-8.098,1.806-15.151,8.856-22.348,18.809
						c-10.242,14.156-21.421,33.693-23.003,36.473c-2.28-2.821-3.539-4.788-3.539-4.788s12.116-20.849,23.149-35.619
						C250.102,114.577,255.487,111.884,267.511,110.866z"/>
					
						<path style="fill:none;stroke:#263238;stroke-width:2.5;stroke-linecap:round;stroke-linejoin:round;stroke-miterlimit:10;" d="
						M269.542,110.706c-13.833,0.867-19.1,3.424-27.771,15.033c-11.037,14.777-23.148,35.622-23.148,35.622
						s7.595,11.885,19.376,19.082c19.482,11.9,16.679,19.311,16.679,19.311s5.89,4.937,11.785-37.289
						c0.409-2.93,3.692-12.241,3.692-12.241"/>
					<path style="fill:#263238;" d="M255.516,200.67c-2.238,2.009-12.698-8.587-12.698-8.587l4.307-5.124
						C247.125,186.96,256.996,199.341,255.516,200.67z"/>
				</g>
			</g>
		</g>
	</g>
</g>
</svg>
